<svg xmlns="http://www.w3.org/2000/svg" version="1.1" xmlns:xlink="http://www.w3.org/1999/xlink" xmlns:svgjs="http://svgjs.dev/svgjs" viewBox="0 0 800 800" preserveAspectRatio="xMidYMid slice" style="user-select: auto;"><defs style="user-select: auto;"><pattern id="pppixelate-pattern" width="20" height="20" patternUnits="userSpaceOnUse" patternTransform="scale(8) rotate(0)" shape-rendering="crispEdges" style="user-select: auto;">
    <rect width="1" height="1" x="8" y="6" fill="hsl(0, 0%, 0%)" style="user-select: auto;"></rect><rect width="1" height="1" x="9" y="6" fill="hsl(0, 0%, 0%)" style="user-select: auto;"></rect><rect width="1" height="1" x="10" y="6" fill="hsl(0, 0%, 0%)" style="user-select: auto;"></rect><rect width="1" height="1" x="11" y="6" fill="hsl(0, 0%, 0%)" style="user-select: auto;"></rect><rect width="1" height="1" x="7" y="7" fill="hsl(0, 0%, 0%)" style="user-select: auto;"></rect><rect width="1" height="1" x="8" y="7" fill="hsl(0, 0%, 0%)" style="user-select: auto;"></rect><rect width="1" height="1" x="9" y="7" fill="hsl(0, 0%, 0%)" style="user-select: auto;"></rect><rect width="1" height="1" x="10" y="7" fill="hsl(0, 0%, 0%)" style="user-select: auto;"></rect><rect width="1" height="1" x="11" y="7" fill="hsl(0, 0%, 0%)" style="user-select: auto;"></rect><rect width="1" height="1" x="12" y="7" fill="hsl(0, 0%, 0%)" style="user-select: auto;"></rect><rect width="1" height="1" x="7" y="8" fill="hsl(0, 0%, 0%)" style="user-select: auto;"></rect><rect width="1" height="1" x="8" y="8" fill="hsl(0, 0%, 0%)" style="user-select: auto;"></rect><rect width="1" height="1" x="9" y="8" fill="hsl(28, 67%, 91%)" style="user-select: auto;"></rect><rect width="1" height="1" x="10" y="8" fill="hsl(28, 67%, 91%)" style="user-select: auto;"></rect><rect width="1" height="1" x="11" y="8" fill="hsl(0, 0%, 0%)" style="user-select: auto;"></rect><rect width="1" height="1" x="12" y="8" fill="hsl(0, 0%, 0%)" style="user-select: auto;"></rect><rect width="1" height="1" x="7" y="9" fill="hsl(0, 0%, 0%)" style="user-select: auto;"></rect><rect width="1" height="1" x="8" y="9" fill="hsl(28, 67%, 91%)" style="user-select: auto;"></rect><rect width="1" height="1" x="9" y="9" fill="hsl(28, 67%, 91%)" style="user-select: auto;"></rect><rect width="1" height="1" x="10" y="9" fill="hsl(28, 67%, 91%)" style="user-select: auto;"></rect><rect width="1" height="1" x="11" y="9" fill="hsl(28, 67%, 91%)" style="user-select: auto;"></rect><rect width="1" height="1" x="12" y="9" fill="hsl(0, 0%, 0%)" style="user-select: auto;"></rect><rect width="1" height="1" x="7" y="10" fill="hsl(28, 67%, 91%)" style="user-select: auto;"></rect><rect width="1" height="1" x="8" y="10" fill="hsl(0, 0%, 0%)" style="user-select: auto;"></rect><rect width="1" height="1" x="9" y="10" fill="hsl(28, 67%, 91%)" style="user-select: auto;"></rect><rect width="1" height="1" x="10" y="10" fill="hsl(28, 67%, 91%)" style="user-select: auto;"></rect><rect width="1" height="1" x="11" y="10" fill="hsl(0, 0%, 0%)" style="user-select: auto;"></rect><rect width="1" height="1" x="12" y="10" fill="hsl(28, 67%, 91%)" style="user-select: auto;"></rect><rect width="1" height="1" x="7" y="11" fill="rgb(247,231,217)" style="user-select: auto;"></rect><rect width="1" height="1" x="8" y="11" fill="hsl(28, 67%, 91%)" style="user-select: auto;"></rect><rect width="1" height="1" x="9" y="11" fill="hsl(28, 67%, 91%)" style="user-select: auto;"></rect><rect width="1" height="1" x="10" y="11" fill="hsl(28, 67%, 91%)" style="user-select: auto;"></rect><rect width="1" height="1" x="11" y="11" fill="hsl(28, 67%, 91%)" style="user-select: auto;"></rect><rect width="1" height="1" x="12" y="11" fill="rgb(247,231,217)" style="user-select: auto;"></rect><rect width="1" height="1" x="8" y="12" fill="rgb(247,231,217)" style="user-select: auto;"></rect><rect width="1" height="1" x="9" y="12" fill="rgb(247,231,217)" style="user-select: auto;"></rect><rect width="1" height="1" x="10" y="12" fill="rgb(247,231,217)" style="user-select: auto;"></rect><rect width="1" height="1" x="11" y="12" fill="rgb(247,231,217)" style="user-select: auto;"></rect><rect width="1" height="1" x="9" y="13" fill="hsl(0, 0%, 0%)" style="user-select: auto;"></rect><rect width="1" height="1" x="10" y="13" fill="hsl(0, 0%, 0%)" style="user-select: auto;"></rect><rect width="1" height="1" x="7" y="14" fill="hsl(0, 0%, 0%)" style="user-select: auto;"></rect><rect width="1" height="1" x="8" y="14" fill="hsl(0, 0%, 0%)" style="user-select: auto;"></rect><rect width="1" height="1" x="9" y="14" fill="hsl(0, 0%, 0%)" style="user-select: auto;"></rect><rect width="1" height="1" x="10" y="14" fill="hsl(0, 0%, 0%)" style="user-select: auto;"></rect><rect width="1" height="1" x="11" y="14" fill="hsl(0, 0%, 0%)" style="user-select: auto;"></rect><rect width="1" height="1" x="12" y="14" fill="hsl(0, 0%, 0%)" style="user-select: auto;"></rect><rect width="1" height="1" x="6" y="15" fill="hsl(0, 0%, 0%)" style="user-select: auto;"></rect><rect width="1" height="1" x="7" y="15" fill="hsl(0, 0%, 0%)" style="user-select: auto;"></rect><rect width="1" height="1" x="8" y="15" fill="hsl(0, 0%, 0%)" style="user-select: auto;"></rect><rect width="1" height="1" x="9" y="15" fill="hsl(0, 0%, 0%)" style="user-select: auto;"></rect><rect width="1" height="1" x="10" y="15" fill="hsl(0, 0%, 0%)" style="user-select: auto;"></rect><rect width="1" height="1" x="11" y="15" fill="hsl(0, 0%, 0%)" style="user-select: auto;"></rect><rect width="1" height="1" x="12" y="15" fill="hsl(0, 0%, 0%)" style="user-select: auto;"></rect><rect width="1" height="1" x="13" y="15" fill="hsl(0, 0%, 0%)" style="user-select: auto;"></rect><rect width="1" height="1" x="6" y="16" fill="hsl(0, 0%, 0%)" style="user-select: auto;"></rect><rect width="1" height="1" x="7" y="16" fill="hsl(0, 0%, 0%)" style="user-select: auto;"></rect><rect width="1" height="1" x="8" y="16" fill="hsl(0, 0%, 0%)" style="user-select: auto;"></rect><rect width="1" height="1" x="9" y="16" fill="hsl(0, 0%, 0%)" style="user-select: auto;"></rect><rect width="1" height="1" x="10" y="16" fill="hsl(0, 0%, 0%)" style="user-select: auto;"></rect><rect width="1" height="1" x="11" y="16" fill="hsl(0, 0%, 0%)" style="user-select: auto;"></rect><rect width="1" height="1" x="12" y="16" fill="hsl(0, 0%, 0%)" style="user-select: auto;"></rect><rect width="1" height="1" x="13" y="16" fill="hsl(0, 0%, 0%)" style="user-select: auto;"></rect>
  </pattern></defs><rect width="100%" height="100%" fill="url(#pppixelate-pattern)" style="user-select: auto;"></rect></svg>